<mxfile host="app.diagrams.net" modified="2022-03-14T10:37:21.491Z" agent="5.0 (Macintosh; Intel Mac OS X 10_15_7) AppleWebKit/537.36 (KHTML, like Gecko) Chrome/98.0.4758.80 Safari/537.36" etag="vnetvFwZiWSYjb7L7uY5" version="16.5.6" type="github">
  <diagram id="45BuIupUGk12l6SbutYL" name="第 1 页">
    <mxGraphModel dx="946" dy="614" grid="1" gridSize="10" guides="1" tooltips="1" connect="1" arrows="1" fold="1" page="1" pageScale="1" pageWidth="3300" pageHeight="4681" math="0" shadow="0">
      <root>
        <mxCell id="0" />
        <mxCell id="1" parent="0" />
        <mxCell id="7OJFLhD6z0JY9_suSFTH-4" value="运行" style="edgeStyle=orthogonalEdgeStyle;rounded=0;orthogonalLoop=1;jettySize=auto;html=1;exitX=0.5;exitY=1;exitDx=0;exitDy=0;entryX=0.5;entryY=0;entryDx=0;entryDy=0;" edge="1" parent="1" source="7OJFLhD6z0JY9_suSFTH-1" target="7OJFLhD6z0JY9_suSFTH-2">
          <mxGeometry relative="1" as="geometry" />
        </mxCell>
        <mxCell id="7OJFLhD6z0JY9_suSFTH-1" value="volcano-datafactory创建datax离线同步任务" style="rounded=1;whiteSpace=wrap;html=1;" vertex="1" parent="1">
          <mxGeometry x="120" y="70" width="120" height="60" as="geometry" />
        </mxCell>
        <mxCell id="7OJFLhD6z0JY9_suSFTH-10" style="edgeStyle=orthogonalEdgeStyle;rounded=0;orthogonalLoop=1;jettySize=auto;html=1;exitX=0.5;exitY=1;exitDx=0;exitDy=0;" edge="1" parent="1" source="7OJFLhD6z0JY9_suSFTH-2" target="7OJFLhD6z0JY9_suSFTH-5">
          <mxGeometry relative="1" as="geometry" />
        </mxCell>
        <mxCell id="7OJFLhD6z0JY9_suSFTH-2" value="在datafactory中生成datax执行的JSON脚本，对敏感信息进行加密" style="rounded=1;whiteSpace=wrap;html=1;" vertex="1" parent="1">
          <mxGeometry x="120" y="200" width="120" height="60" as="geometry" />
        </mxCell>
        <mxCell id="7OJFLhD6z0JY9_suSFTH-12" style="edgeStyle=orthogonalEdgeStyle;rounded=0;orthogonalLoop=1;jettySize=auto;html=1;exitX=0.5;exitY=1;exitDx=0;exitDy=0;" edge="1" parent="1" source="7OJFLhD6z0JY9_suSFTH-5" target="7OJFLhD6z0JY9_suSFTH-11">
          <mxGeometry relative="1" as="geometry" />
        </mxCell>
        <mxCell id="7OJFLhD6z0JY9_suSFTH-5" value="datax中调用volcano-bae对敏感信息进行解密" style="rounded=1;whiteSpace=wrap;html=1;" vertex="1" parent="1">
          <mxGeometry x="120" y="300" width="120" height="60" as="geometry" />
        </mxCell>
        <mxCell id="7OJFLhD6z0JY9_suSFTH-6" value="volcano-base" style="rounded=1;whiteSpace=wrap;html=1;" vertex="1" parent="1">
          <mxGeometry x="330" y="200" width="120" height="60" as="geometry" />
        </mxCell>
        <mxCell id="7OJFLhD6z0JY9_suSFTH-7" value="加密" style="endArrow=classic;startArrow=classic;html=1;rounded=0;entryX=-0.017;entryY=0.642;entryDx=0;entryDy=0;entryPerimeter=0;" edge="1" parent="1" target="7OJFLhD6z0JY9_suSFTH-6">
          <mxGeometry width="50" height="50" relative="1" as="geometry">
            <mxPoint x="240" y="240" as="sourcePoint" />
            <mxPoint x="290" y="190" as="targetPoint" />
          </mxGeometry>
        </mxCell>
        <mxCell id="7OJFLhD6z0JY9_suSFTH-8" value="" style="endArrow=classic;startArrow=classic;html=1;rounded=0;exitX=1;exitY=0.5;exitDx=0;exitDy=0;entryX=0.5;entryY=1;entryDx=0;entryDy=0;" edge="1" parent="1" source="7OJFLhD6z0JY9_suSFTH-5" target="7OJFLhD6z0JY9_suSFTH-6">
          <mxGeometry width="50" height="50" relative="1" as="geometry">
            <mxPoint x="460" y="310" as="sourcePoint" />
            <mxPoint x="510" y="260" as="targetPoint" />
          </mxGeometry>
        </mxCell>
        <mxCell id="7OJFLhD6z0JY9_suSFTH-9" value="解密" style="edgeLabel;html=1;align=center;verticalAlign=middle;resizable=0;points=[];" vertex="1" connectable="0" parent="7OJFLhD6z0JY9_suSFTH-8">
          <mxGeometry x="0.1639" y="3" relative="1" as="geometry">
            <mxPoint as="offset" />
          </mxGeometry>
        </mxCell>
        <mxCell id="7OJFLhD6z0JY9_suSFTH-11" value="执行日志打印" style="rounded=1;whiteSpace=wrap;html=1;" vertex="1" parent="1">
          <mxGeometry x="120" y="400" width="120" height="60" as="geometry" />
        </mxCell>
        <mxCell id="7OJFLhD6z0JY9_suSFTH-13" value="运行" style="edgeStyle=orthogonalEdgeStyle;rounded=0;orthogonalLoop=1;jettySize=auto;html=1;exitX=0.5;exitY=1;exitDx=0;exitDy=0;entryX=0.5;entryY=0;entryDx=0;entryDy=0;" edge="1" parent="1" source="7OJFLhD6z0JY9_suSFTH-14" target="7OJFLhD6z0JY9_suSFTH-16">
          <mxGeometry relative="1" as="geometry" />
        </mxCell>
        <mxCell id="7OJFLhD6z0JY9_suSFTH-14" value="volcano-datafactory创建datax离线同步任务" style="rounded=1;whiteSpace=wrap;html=1;" vertex="1" parent="1">
          <mxGeometry x="530" y="50" width="120" height="60" as="geometry" />
        </mxCell>
        <mxCell id="7OJFLhD6z0JY9_suSFTH-15" style="edgeStyle=orthogonalEdgeStyle;rounded=0;orthogonalLoop=1;jettySize=auto;html=1;exitX=0.5;exitY=1;exitDx=0;exitDy=0;" edge="1" parent="1" source="7OJFLhD6z0JY9_suSFTH-16" target="7OJFLhD6z0JY9_suSFTH-18">
          <mxGeometry relative="1" as="geometry" />
        </mxCell>
        <mxCell id="7OJFLhD6z0JY9_suSFTH-16" value="在datafactory中生成datax执行的JSON脚本，存储属于数据源id及环境" style="rounded=1;whiteSpace=wrap;html=1;" vertex="1" parent="1">
          <mxGeometry x="530" y="180" width="120" height="60" as="geometry" />
        </mxCell>
        <mxCell id="7OJFLhD6z0JY9_suSFTH-17" style="edgeStyle=orthogonalEdgeStyle;rounded=0;orthogonalLoop=1;jettySize=auto;html=1;exitX=0.5;exitY=1;exitDx=0;exitDy=0;" edge="1" parent="1" source="7OJFLhD6z0JY9_suSFTH-18" target="7OJFLhD6z0JY9_suSFTH-23">
          <mxGeometry relative="1" as="geometry" />
        </mxCell>
        <mxCell id="7OJFLhD6z0JY9_suSFTH-18" value="datax中通过http请求从数据源中获取数据源信息，进行喜欢" style="rounded=1;whiteSpace=wrap;html=1;" vertex="1" parent="1">
          <mxGeometry x="530" y="280" width="120" height="60" as="geometry" />
        </mxCell>
        <mxCell id="7OJFLhD6z0JY9_suSFTH-19" value="volcano-datasource" style="rounded=1;whiteSpace=wrap;html=1;" vertex="1" parent="1">
          <mxGeometry x="740" y="180" width="120" height="60" as="geometry" />
        </mxCell>
        <mxCell id="7OJFLhD6z0JY9_suSFTH-21" value="" style="endArrow=classic;startArrow=classic;html=1;rounded=0;exitX=1;exitY=0.5;exitDx=0;exitDy=0;entryX=0.5;entryY=1;entryDx=0;entryDy=0;" edge="1" parent="1" source="7OJFLhD6z0JY9_suSFTH-18" target="7OJFLhD6z0JY9_suSFTH-19">
          <mxGeometry width="50" height="50" relative="1" as="geometry">
            <mxPoint x="870" y="290" as="sourcePoint" />
            <mxPoint x="920" y="240" as="targetPoint" />
          </mxGeometry>
        </mxCell>
        <mxCell id="7OJFLhD6z0JY9_suSFTH-22" value="获取数据源信息" style="edgeLabel;html=1;align=center;verticalAlign=middle;resizable=0;points=[];" vertex="1" connectable="0" parent="7OJFLhD6z0JY9_suSFTH-21">
          <mxGeometry x="0.1639" y="3" relative="1" as="geometry">
            <mxPoint as="offset" />
          </mxGeometry>
        </mxCell>
        <mxCell id="7OJFLhD6z0JY9_suSFTH-23" value="执行日志打印" style="rounded=1;whiteSpace=wrap;html=1;" vertex="1" parent="1">
          <mxGeometry x="530" y="380" width="120" height="60" as="geometry" />
        </mxCell>
      </root>
    </mxGraphModel>
  </diagram>
</mxfile>
